<svg width="285" height="62" viewBox="0 0 285 62" fill="none" xmlns="http://www.w3.org/2000/svg">
<path fill-rule="evenodd" clip-rule="evenodd" d="M17.4304 1.654e-08C14.4238 7.24732 21.0605 11.8394 22.2058 12.6963C24.2701 14.2409 32.4304 17.5454 32.4304 26.5938C32.4301 40.1529 19.5438 41.0897 18.1023 41.0898H15.0056L15.0535 53.3066C15.0533 53.4028 14.9814 53.594 14.8377 53.7139C14.6812 53.8442 14.4776 53.9307 14.3816 53.9307L0.67751 53.8584C0.533504 53.8584 0.369847 53.8196 0.197041 53.666C0.0622421 53.5459 0.0056346 53.306 0.0056346 53.1621C-0.00236486 45.1298 0.0595718 28.3683 0.0056346 26.5449C-0.18281 20.1689 4.41808 17.2482 4.42165 17.3047C3.94184 18.1447 3.11983 22.4892 7.42165 22.4893C10.7105 22.4893 8.92189 17.9292 8.69411 16.585C8.10052 13.0808 8.13484 10.0087 10.0789 6.43262C12.0229 2.85659 17.4303 -0.000250997 17.4304 1.654e-08ZM19.4744 22.3213C16.5751 22.2829 15.0341 24.7692 14.9861 26.1133C14.9381 27.4573 14.9861 31.6338 14.9861 31.6338C15.9705 31.6338 19.2821 31.6752 20.3621 31.4658C22.7141 31.0098 23.818 29.1375 23.8181 27.0977C23.8181 25.6576 23.0982 22.3695 19.4744 22.3213Z" fill="url(#paint0_linear_6578_36303)"/>
<mask id="mask0_6578_36303" style="mask-type:alpha" maskUnits="userSpaceOnUse" x="0" y="0" width="33" height="54">
<path fill-rule="evenodd" clip-rule="evenodd" d="M17.4304 0.00014308C14.4237 7.24774 21.0609 11.8398 22.2058 12.6964C24.2701 14.241 32.4303 17.5448 32.4304 26.5929C32.4304 40.1525 19.5438 41.0899 18.1023 41.09H15.0056L15.0535 53.3058C15.0535 53.4018 14.9817 53.594 14.8377 53.714C14.6812 53.8444 14.4776 53.9298 14.3816 53.9298L0.677518 53.8585C0.533512 53.8585 0.369855 53.8198 0.197049 53.6662C0.0621954 53.5461 0.00567906 53.3062 0.00564269 53.1623C-0.0023576 45.13 0.0595802 28.3684 0.00564269 26.5451C-0.183179 20.1609 4.42967 17.2408 4.42166 17.3048C3.94184 18.1449 3.11983 22.4893 7.42166 22.4894C10.7102 22.4894 8.92209 17.9297 8.69412 16.5851C8.10054 13.0811 8.13496 10.0088 10.0789 6.43276C12.0229 2.85668 17.4304 -0.000191303 17.4304 0.00014308ZM19.4724 22.3214C16.5731 22.283 15.0322 24.7694 14.9842 26.1134C14.9364 27.4501 14.9836 31.586 14.9842 31.633C15.9684 31.633 19.2801 31.6744 20.3601 31.465C22.7122 31.009 23.8162 29.1368 23.8162 27.0968C23.8161 25.6565 23.096 22.3696 19.4724 22.3214Z" fill="#FFC800"/>
</mask>
<g mask="url(#mask0_6578_36303)">
<path d="M13.4655 9.30806C13.0431 4.33508 16.4656 1.05176 18.0337 0.0437222L21.2178 0.979757L31.7302 15.6683V20.5165C30.0501 20.7565 25.354 20.5165 22.6179 19.7484C19.3771 18.8388 13.9935 15.5243 13.4655 9.30806Z" fill="url(#paint1_linear_6578_36303)"/>
<path d="M14.9864 53.9737L15.0241 53.9779L17.0155 53.7619L20.4483 43.8975C19.2483 42.9455 16.4834 41.0462 15.0241 41.0654C12.9354 41.0929 7.00781 41.0654 7.00781 47.2816C7.00781 53.0848 12.4573 53.6919 14.9864 53.9737Z" fill="url(#paint2_linear_6578_36303)"/>
<path d="M4.96668 34.3691C1.85616 36.6156 0.37451 40.4733 0.0224967 42.1214L-3.26562 34.7051L-1.29755 21.3846L1.05453 18.3605L4.41466 17.3045C3.53463 18.3045 2.44659 20.9478 2.44659 22.8487C2.44659 29.3529 9.33484 31.369 15.0231 31.633C12.0709 31.777 8.0772 32.1226 4.96668 34.3691Z" fill="url(#paint3_linear_6578_36303)"/>
</g>
<path d="M49.8789 53.2V28H59.8364C60.0814 28 60.3731 28.0116 60.7114 28.035C61.0497 28.0466 61.3764 28.0816 61.6914 28.14C63.0564 28.35 64.1997 28.8166 65.1214 29.54C66.0547 30.2633 66.7547 31.1791 67.2214 32.2875C67.6881 33.3841 67.9214 34.6033 67.9214 35.945C67.9214 37.275 67.6822 38.4941 67.2039 39.6025C66.7372 40.6991 66.0372 41.615 65.1039 42.35C64.1822 43.0733 63.0447 43.54 61.6914 43.75C61.3764 43.7966 61.0497 43.8316 60.7114 43.855C60.3731 43.8783 60.0814 43.89 59.8364 43.89H52.9939V53.2H49.8789ZM52.9939 40.9325H59.7314C59.9531 40.9325 60.2039 40.9208 60.4839 40.8975C60.7756 40.8741 61.0497 40.8333 61.3064 40.775C62.1114 40.5883 62.7647 40.25 63.2664 39.76C63.7797 39.2583 64.1531 38.675 64.3864 38.01C64.6197 37.3333 64.7364 36.645 64.7364 35.945C64.7364 35.245 64.6197 34.5625 64.3864 33.8975C64.1531 33.2208 63.7797 32.6316 63.2664 32.13C62.7647 31.6283 62.1114 31.29 61.3064 31.115C61.0497 31.045 60.7756 31.0041 60.4839 30.9925C60.2039 30.9691 59.9531 30.9575 59.7314 30.9575H52.9939V40.9325Z" fill="#FBFBFB"/>
<path d="M71.4121 53.2V34.3H74.1946V38.8675L73.7396 38.2725C73.9613 37.6891 74.2471 37.1525 74.5971 36.6625C74.9588 36.1725 75.3613 35.77 75.8046 35.455C76.2946 35.0583 76.8488 34.755 77.4671 34.545C78.0854 34.335 78.7154 34.2125 79.3571 34.1775C79.9988 34.1308 80.5996 34.1716 81.1596 34.3V37.2225C80.5063 37.0475 79.7888 37.0008 79.0071 37.0825C78.2254 37.1641 77.5021 37.45 76.8371 37.94C76.2304 38.3716 75.7579 38.8966 75.4196 39.515C75.0929 40.1333 74.8654 40.8041 74.7371 41.5275C74.6088 42.2391 74.5446 42.9683 74.5446 43.715V53.2H71.4121Z" fill="#FBFBFB"/>
<path d="M92.177 53.725C90.2986 53.725 88.677 53.2991 87.312 52.4475C85.9586 51.5958 84.9145 50.4175 84.1795 48.9125C83.4445 47.4075 83.077 45.6808 83.077 43.7325C83.077 41.7491 83.4503 40.0108 84.197 38.5175C84.9436 37.0241 85.9995 35.8633 87.3645 35.035C88.7295 34.195 90.3336 33.775 92.177 33.775C94.067 33.775 95.6945 34.2008 97.0595 35.0525C98.4245 35.8925 99.4686 37.065 100.192 38.57C100.927 40.0633 101.294 41.7841 101.294 43.7325C101.294 45.7041 100.927 47.4425 100.192 48.9475C99.457 50.4408 98.407 51.6133 97.042 52.465C95.677 53.305 94.0553 53.725 92.177 53.725ZM92.177 50.7675C94.137 50.7675 95.5953 50.1141 96.552 48.8075C97.5086 47.5008 97.987 45.8091 97.987 43.7325C97.987 41.5975 97.5028 39.9 96.5345 38.64C95.5661 37.3683 94.1136 36.7325 92.177 36.7325C90.8586 36.7325 89.7736 37.03 88.922 37.625C88.0703 38.22 87.4345 39.0425 87.0145 40.0925C86.5945 41.1425 86.3845 42.3558 86.3845 43.7325C86.3845 45.8558 86.8745 47.5591 87.8545 48.8425C88.8345 50.1258 90.2753 50.7675 92.177 50.7675Z" fill="#FBFBFB"/>
<path d="M127.74 53.2L127.757 41.1075C127.757 39.6958 127.378 38.5933 126.62 37.8C125.873 36.995 124.899 36.5925 123.697 36.5925C122.997 36.5925 122.332 36.7558 121.702 37.0825C121.072 37.3975 120.559 37.8991 120.162 38.5875C119.766 39.2641 119.567 40.1333 119.567 41.195L117.922 40.53C117.899 39.1883 118.173 38.0158 118.745 37.0125C119.328 35.9975 120.122 35.21 121.125 34.65C122.128 34.09 123.26 33.81 124.52 33.81C126.492 33.81 128.043 34.4108 129.175 35.6125C130.307 36.8025 130.872 38.4066 130.872 40.425L130.855 53.2H127.74ZM105.13 53.2V34.3H107.912V39.3575H108.262V53.2H105.13ZM116.452 53.2L116.47 41.23C116.47 39.7833 116.097 38.6516 115.35 37.835C114.603 37.0066 113.612 36.5925 112.375 36.5925C111.15 36.5925 110.158 37.0125 109.4 37.8525C108.642 38.6925 108.262 39.8066 108.262 41.195L106.617 40.215C106.617 38.99 106.909 37.8933 107.492 36.925C108.076 35.9566 108.869 35.1983 109.872 34.65C110.876 34.09 112.013 33.81 113.285 33.81C114.557 33.81 115.665 34.0783 116.61 34.615C117.555 35.1516 118.284 35.9216 118.797 36.925C119.311 37.9166 119.567 39.1008 119.567 40.4775L119.55 53.2H116.452Z" fill="#FBFBFB"/>
<path d="M143.45 53.725C141.595 53.725 139.973 53.3166 138.585 52.5C137.208 51.6716 136.135 50.5225 135.365 49.0525C134.595 47.5708 134.21 45.8441 134.21 43.8725C134.21 41.8075 134.589 40.0225 135.347 38.5175C136.106 37.0008 137.161 35.8341 138.515 35.0175C139.88 34.1891 141.478 33.775 143.31 33.775C145.211 33.775 146.827 34.2125 148.157 35.0875C149.499 35.9625 150.502 37.2108 151.167 38.8325C151.844 40.4541 152.136 42.385 152.042 44.625H148.892V43.505C148.857 41.1833 148.385 39.4508 147.475 38.3075C146.565 37.1525 145.211 36.575 143.415 36.575C141.49 36.575 140.026 37.1933 139.022 38.43C138.019 39.6666 137.517 41.44 137.517 43.75C137.517 45.9783 138.019 47.705 139.022 48.93C140.026 50.155 141.455 50.7675 143.31 50.7675C144.558 50.7675 145.643 50.4816 146.565 49.91C147.486 49.3383 148.21 48.5158 148.735 47.4425L151.727 48.475C150.992 50.1433 149.884 51.4383 148.402 52.36C146.932 53.27 145.281 53.725 143.45 53.725ZM136.467 44.625V42.1225H150.432V44.625H136.467Z" fill="#FBFBFB"/>
<path d="M166.491 53.2C165.371 53.4216 164.263 53.5091 163.166 53.4625C162.081 53.4275 161.113 53.2116 160.261 52.815C159.409 52.4066 158.762 51.7766 158.318 50.925C157.945 50.1783 157.741 49.4258 157.706 48.6675C157.683 47.8975 157.671 47.0283 157.671 46.06V29.05H160.786V45.92C160.786 46.69 160.792 47.3491 160.803 47.8975C160.827 48.4458 160.949 48.9183 161.171 49.315C161.591 50.0616 162.256 50.4991 163.166 50.6275C164.088 50.7558 165.196 50.7208 166.491 50.5225V53.2ZM153.838 36.8725V34.3H166.491V36.8725H153.838Z" fill="#FBFBFB"/>
<path d="M177.732 53.725C175.877 53.725 174.255 53.3166 172.867 52.5C171.49 51.6716 170.417 50.5225 169.647 49.0525C168.877 47.5708 168.492 45.8441 168.492 43.8725C168.492 41.8075 168.871 40.0225 169.629 38.5175C170.388 37.0008 171.444 35.8341 172.797 35.0175C174.162 34.1891 175.76 33.775 177.592 33.775C179.494 33.775 181.109 34.2125 182.439 35.0875C183.781 35.9625 184.784 37.2108 185.449 38.8325C186.126 40.4541 186.418 42.385 186.324 44.625H183.174V43.505C183.139 41.1833 182.667 39.4508 181.757 38.3075C180.847 37.1525 179.494 36.575 177.697 36.575C175.772 36.575 174.308 37.1933 173.304 38.43C172.301 39.6666 171.799 41.44 171.799 43.75C171.799 45.9783 172.301 47.705 173.304 48.93C174.308 50.155 175.737 50.7675 177.592 50.7675C178.84 50.7675 179.925 50.4816 180.847 49.91C181.769 49.3383 182.492 48.5158 183.017 47.4425L186.009 48.475C185.274 50.1433 184.166 51.4383 182.684 52.36C181.214 53.27 179.564 53.725 177.732 53.725ZM170.749 44.625V42.1225H184.714V44.625H170.749Z" fill="#FBFBFB"/>
<path d="M192.504 61.6L196.161 51.66L196.214 54.6L187.954 34.3H191.226L197.701 50.6275H196.581L202.654 34.3H205.821L195.531 61.6H192.504Z" fill="#FBFBFB"/>
<path d="M221.389 53.2L213.444 28H217.784L224.434 49.105L231.171 28H235.511L227.566 53.2H221.389Z" fill="#FBFBFB"/>
<path d="M238.141 53.2V28H248.553C248.798 28 249.113 28.0116 249.498 28.035C249.883 28.0466 250.239 28.0816 250.566 28.14C252.024 28.3616 253.226 28.8458 254.171 29.5925C255.127 30.3391 255.833 31.2841 256.288 32.4275C256.755 33.5591 256.988 34.8191 256.988 36.2075C256.988 37.5841 256.755 38.8441 256.288 39.9875C255.821 41.1191 255.11 42.0583 254.153 42.805C253.208 43.5516 252.012 44.0358 250.566 44.2575C250.239 44.3041 249.877 44.3391 249.481 44.3625C249.096 44.3858 248.786 44.3975 248.553 44.3975H242.358V53.2H238.141ZM242.358 40.46H248.378C248.611 40.46 248.874 40.4483 249.166 40.425C249.457 40.4016 249.726 40.355 249.971 40.285C250.671 40.11 251.219 39.8008 251.616 39.3575C252.024 38.9141 252.31 38.4125 252.473 37.8525C252.648 37.2925 252.736 36.7441 252.736 36.2075C252.736 35.6708 252.648 35.1225 252.473 34.5625C252.31 33.9908 252.024 33.4833 251.616 33.04C251.219 32.5966 250.671 32.2875 249.971 32.1125C249.726 32.0425 249.457 32.0016 249.166 31.99C248.874 31.9666 248.611 31.955 248.378 31.955H242.358V40.46Z" fill="#FBFBFB"/>
<path d="M260.494 53.2V28H264.764L276.454 45.7625V28H280.724V53.2H276.454L264.764 35.4375V53.2H260.494Z" fill="#FBFBFB"/>
<defs>
<linearGradient id="paint0_linear_6578_36303" x1="14.1123" y1="53.9544" x2="14.4964" y2="0.91172" gradientUnits="userSpaceOnUse">
<stop stop-color="#FD4007"/>
<stop offset="0.378591" stop-color="#FF3D11"/>
<stop offset="0.954321" stop-color="#FEBB0B"/>
</linearGradient>
<linearGradient id="paint1_linear_6578_36303" x1="22.5778" y1="0.067723" x2="22.5778" y2="20.4265" gradientUnits="userSpaceOnUse">
<stop stop-color="#FDE403"/>
<stop offset="1" stop-color="#FE5B1A"/>
</linearGradient>
<linearGradient id="paint2_linear_6578_36303" x1="9.88726" y1="42.2175" x2="16.0075" y2="54.6259" gradientUnits="userSpaceOnUse">
<stop stop-color="#CA1929"/>
<stop offset="1" stop-color="#F6261C"/>
</linearGradient>
<linearGradient id="paint3_linear_6578_36303" x1="4.10265" y1="17.2805" x2="4.10265" y2="42.1214" gradientUnits="userSpaceOnUse">
<stop stop-color="#FB9C13"/>
<stop offset="1" stop-color="#F7300C"/>
</linearGradient>
</defs>
</svg>
